<svg version="1.2" xmlns="http://www.w3.org/2000/svg" viewBox="0 0 2090 1900" width="2090" height="1900"><style>.a{fill:#234b5a}.b{fill:#be8756}.c{fill:#f7f4eb}</style><path class="a" d="m526 501c-1.4 3-2.8 5-5.2 7.3-2.4 2.3-4.7 4.7-6.9 7.2-3.5 4.1-7.1 8-10.8 11.9q-7 7.4-13.8 15.1c-3.2 3.5-6.5 7-9.7 10.5q-5.1 5.5-10.2 11.1c-0.6 0.7-0.6 0.7-1.3 1.5q-1.4 1.4-2.7 2.9-3.5 3.8-6.9 7.5-1.4 1.5-2.7 3c-60.5 66-60.5 66-61.9 67.5q-1.4 1.5-2.8 3-3.4 3.8-6.9 7.6-0.7 0.7-1.4 1.5-2 2.1-3.9 4.2-3.8 4.2-7.6 8.4-1.2 1.3-2.4 2.7-1 1-1.9 2.1 0.9 0 1.8 0c78.3 0.4 156.5 1 234.8 1.9q8.7 0.1 17.4 0.2 30.1 0.3 60.2 0.7 11.6 0.2 23.3 0.3 5.8 0 11.6 0.1 2.5 0 4.9 0c14.8 0 26.5 4.4 39.5 11 3.6 1.9 7.2 3.5 10.9 5.1 47.8 21.4 93.5 48.7 132.6 83.7q0.8 0.7 1.5 1.4c11.8 10.4 22.8 21.3 32.5 33.6q1.3 1.6 2.7 3.2c14 16.8 25.8 35.6 36.3 54.8q0.7 1.3 1.4 2.6c15 27.3 26.6 56.4 35.6 86.2 1 3.1 2 6.1 3 9.2q0.8-1.6 1.6-3.3c10-20.2 20-40.3 31.4-59.7q1.9-3.3 3.9-6.7c8-13.7 16.3-27.1 25.1-40.3 0.7-1 0.7-1 1.4-2.1 20.7-30.8 43.9-62.5 72.2-86.8q2.7-2.3 5.3-4.7c14.4-12.7 29.9-24.1 46.1-34.4q1.2-0.7 2.4-1.5c11.2-7.1 22.5-13.9 34.2-20.2q2.5-1.3 4.9-2.7c46.6-25.4 46.6-25.4 61.5-25.9q1.8-0.1 3.7-0.1 2.1-0.1 4.2-0.1 2.2-0.1 4.4-0.2 4.7-0.1 9.4-0.3 7.6-0.2 15.2-0.4 12.1-0.4 24.2-0.8 23.9-0.7 47.8-1.5 3.9-0.1 7.8-0.2 32.8-1 65.5-2.2c26-1 52-1.9 78-2.7q10.6-0.3 21.2-0.7 8.4-0.2 16.8-0.5 5-0.2 9.9-0.3c13.2-0.5 26.5-0.8 39.7-0.9q1.7 0 3.4 0c8.3 0 15.1 1.1 22.8 4.4q1.7 0.7 3.4 1.3 5.4 2.2 10.6 4.5 1.8 0.8 3.6 1.6c38.9 17.5 75.2 43.3 101.4 77.4q1.2 1.4 2.3 2.9c10.1 12.7 18.5 26.4 26 40.8 0.7 1.3 0.7 1.3 1.4 2.7q1.4 2.7 2.7 5.4 1.7 3.3 3.4 6.6c5.4 10.8 6.2 20.1 6 32q0 2.9 0 5.7 0 7.7-0.1 15.3 0 8 0 16-0.1 15.1-0.2 30.3-0.1 17.2-0.1 34.4-0.2 35.5-0.4 70.9c-1.2 0-1.2 0-2.5 0q-72.2-0.5-144.4-0.7-8.6 0-17.3-0.1-1.8 0-3.5 0-28-0.1-55.9-0.3-28.7-0.2-57.4-0.2-17.7 0-35.3-0.2-12.2-0.1-24.4-0.1-6.9 0-13.9-0.1c-24.3-0.3-40.6 2.8-61.4 15.7q-4.1 2.3-8.2 4.7c-33 19-61.1 43.7-83.8 74.3q-0.8 1.1-1.7 2.2c-13.6 18.4-26.8 37.6-33.2 59.8-0.3 1-0.3 1-0.6 2-4.6 17.4-3.8 35.6-3.7 53.4q0 4.3 0 8.5c-0.5 25.2-0.5 25.2 2.9 50.1q0.2 1.1 0.5 2.3c4.9 19.9 14.4 36.5 26.8 52.7q1.3 1.7 2.6 3.4c8.6 11.4 17.6 22.2 27.4 32.6q1 1.1 2 2.1c5.5 5.8 11.8 10.7 18.1 15.5q1.9 1.4 3.6 2.8c14.9 11.5 31.2 20.6 47.8 29.3q1.4 0.8 2.8 1.5 3.8 2 7.7 3.8 2.1 1.1 4.2 2.1c14.8 7.1 26.9 9.1 43.1 8.5q3.3-0.1 6.6-0.1 6.7-0.1 13.5-0.3 9.3-0.3 18.7-0.4 16.7-0.2 33.5-0.5 5-0.1 10-0.2 41.9-0.8 83.8-1.9c1.1 0 1.1 0 2.1 0q21-0.5 41.9-1.1c25-0.6 49.9-1.2 74.9-1.6q3.6-0.1 7.2-0.2c19.9-0.3 39.7-0.3 59.5-0.3q0.4 48.1 0.7 96.1 0 5.7 0.1 11.4c0 1.1 0 1.1 0 2.3q0.1 18.2 0.2 36.5 0.2 18.8 0.3 37.6 0.1 11.5 0.2 23.1 0.1 8.9 0.1 17.8 0 3.7 0 7.3c0.2 14.8-1.2 27.1-6.6 40.9q-1 2.7-1.9 5.5c-9.7 24.9-23.5 46.6-40.1 67.5q-1 1.3-2.1 2.7c-4.7 6-9.7 11.7-14.9 17.3q-1 1.1-2.1 2.3c-12.2 13-27.9 23.2-42.9 32.7-0.9 0.6-0.9 0.6-1.8 1.2-21.9 13.6-45.1 23.1-69.6 31q-2.7 0.8-5.3 1.8c-3.6 1.1-6.6 1.2-10.4 1.2q-1 0-2 0-3.5 0-6.9 0-2.4 0-4.9 0-6.6 0-13.3 0-5.6 0-11.2-0.1c-36.2 0-72.3-0.3-108.5-0.6q-13.3-0.2-26.6-0.3-23.8-0.2-47.6-0.4-22.7-0.2-45.4-0.4c-1.4-0.1-1.4-0.1-2.8-0.1q-5.7 0-11.3-0.1c-129.2-1.1-129.2-1.1-191-1.9q-4.7 0-9.3-0.1-1.1 0-2.3 0c-25.3-0.3-50.7-0.5-76.1-0.7q-51.7-0.4-103.3-1-50-0.5-100-1-3.4 0-6.8-0.1-29.2-0.2-58.4-0.5-22.2-0.2-44.4-0.4c-1.7 0-1.7 0-3.4 0q-44.7-0.4-89.5-1.1-33.8-0.4-67.7-0.7-1 0-2.1 0-17.9-0.1-35.7-0.2-14.8-0.1-29.5-0.2-1.1 0-2.1 0-30.3-0.2-60.5-0.9-22.3-0.4-44.6-0.6-4.6 0-9.3 0c-12.3-0.1-12.3-0.1-24.6-0.1q-7.7 0-15.5-0.1-2.9 0-5.7 0c-11.6 0-21.6-1-32.6-4.6q-2.3-0.7-4.5-1.3c-25.4-8-50.9-19.7-71.5-36.7q-0.8-0.6-1.6-1.3c-11.3-9.2-21.5-19.1-30.4-30.7q-0.7-0.9-1.4-1.9c-12.7-16.6-23-34.6-32.4-53.2q-0.7-1.5-1.5-2.9-1.9-4-3.7-7.9-1-2.2-2.1-4.3c-7.6-15.5-9.2-28.7-8.9-45.8q0-3.8 0-7.6-0.1-8.2 0-16.4 0.1-12.2 0.1-24.3 0-20.2 0.2-40.3 0.1-20.1 0.1-40.1c0-1.2 0-1.2 0-2.5q0.1-6.4 0.1-12.7 0.1-48.1 0.4-96.2 0-4.8 0-9.6 0-1.2 0-2.4 0.1-23.4 0.2-46.8 0-1.8 0-3.6 0.1-7 0.1-14 0.2-54.5 0.5-108.9c0.3-59.3 0.5-118.6 0.7-177.9q0.1-30.7 0.2-61.4 0-5.6 0.1-11.3 0-1.1 0-2.2 0-10.1 0-20.1 0.1-4.5 0.1-8.9 0.2-53 0.3-106 0.1-32.6 0.2-65.3 0.1-20 0.1-40 0-13.4 0.1-26.8 0-7.6 0-15.3c0.1-97.5 0.1-97.5 30.5-135.4q1.2-1.5 2.3-3 3.3-4 6.7-8 1.4-1.7 2.8-3.4c26.1-31.4 62.4-49.5 101.2-60.6q1.5-0.5 3.1-1c4.7-1.2 9.1-1.4 14-1.6 1.5 0 1.5 0 3-0.1 12.6-0.4 25.2-0.7 37.8-0.8q3.3-0.1 6.5-0.1c42.8-0.7 85.7-0.5 128.6-0.4z"/><path class="b" d="m1020 79c7.1 5.8 13.5 12.4 20 19 6.7 6.9 6.7 6.9 13.8 13.3 7.3 6.3 13.9 13.3 20.6 20.2 8.1 8.2 8.1 8.2 16.6 16 7.3 6.2 13.8 13.2 20.4 20 8.1 8.2 8.1 8.2 16.6 16 7.4 6.3 14.1 13.6 21 20.5 9.5 9.7 9.5 9.7 19.6 18.8 1.4 1.2 1.4 1.2 3.4 3.2 2.9 0.2 5.6 0.3 8.5 0.3 1.3 0 1.3 0 2.7 0q4.5 0 8.9 0 3.3 0 6.5 0 8.7 0.1 17.4 0.1 9.1 0 18.3 0.1 17.2 0 34.5 0.1 19.6 0 39.3 0.1 40.5 0.2 80.9 0.3 0 1.8 0 3.7-0.6 43-0.8 86.1 0 5.3 0 10.6 0 1.1 0 2.2-0.1 17-0.4 34.1-0.2 17.5-0.2 35.1 0 9.8-0.2 19.7c-2.1 31.1-2.1 31.1 10.6 58.1 3.8 3.6 7.9 6.7 12.2 9.5 5.5 3.7 10.4 8.3 15 13.1q1.1 1 2.2 2.1 2.1 2.2 4.2 4.4c3.4 3.4 6.8 6.7 10.4 9.8 4.5 3.9 8.6 8.1 12.8 12.3q2.2 2.3 4.5 4.5c0.9 1 0.9 1 1.9 2 1.9 1.9 1.9 1.9 4.8 3.7q0 1.5 0 3 0.9 0.4 1.8 0.8c2.3 1.2 3.7 2.5 5.4 4.4 3.1 3.1 6.2 6 9.5 8.8 3.3 2.9 6.5 5.9 9.7 8.8q4.7 4.3 9.3 8.4c5.4 4.8 10.4 9.8 15.4 15 3.2 3.2 6.4 6.3 9.8 9.2 4.6 4 8.8 8.2 13.1 12.5q1.2 1.1 2.3 2.3c1.1 1.1 1.1 1.1 2.3 2.2q0.9 1 2 2c1.4 1.6 1.4 1.6 1.4 2.6q-0.9 0-1.7 0-21.2 0.2-42.3 0.3-10.2 0.1-20.4 0.2-9.9 0.1-19.8 0.2-3.7 0-7.5 0c-14 0.1-28.1 0.4-42.1 1-9.4 0.3-18.8 0.4-28.2 0.3q-0.4-0.9-0.8-1.7c-1.4-2.6-3-4.3-5.1-6.4-1.1-1.1-1.1-1.1-2.3-2.3q-1.2-1.2-2.4-2.4-1.2-1.2-2.4-2.4c-3.6-3.6-7.2-7-11.1-10.3-5.1-4.5-9.8-9.3-14.5-14.2-3.4-3.4-6.8-6.7-10.4-9.8-5.2-4.4-9.9-9.3-14.6-14.2-3.4-3.4-6.8-6.7-10.4-9.8-5.2-4.4-9.9-9.3-14.6-14.2-4.1-4.1-8.2-8-12.6-11.7-2.5-2.2-4.8-4.6-7.2-7-3-3.2-3-3.2-6.6-5.6 0-51.1 0-102.3 0-155-46 1-46 1-91.9 2.2-9 0.1-9 0.1-13.2 0.2q-4.3 0-8.7 0.2c-26.9 1-26.9 1-36.2-7.4-2.6-2.9-5.1-5.8-7.4-9-4.2-5.8-9.2-10.9-14.3-16q-0.7-0.7-1.5-1.5-2.4-2.3-4.8-4.7c-11.7-11.6-11.7-11.6-15.5-16-5-5.8-10.5-11.1-16-16.5-12.5-12.4-12.5-12.4-17.9-18.6-3.1-3.6-6.6-7-10-10.4q-1.1-1.1-2.3-2.2-2.6-2.7-5.3-5.3c-3.1 1.4-5.2 3-7.7 5.3-1 1-1 1-2 2-1.1 1-1.1 1-2.2 2.1q-2.3 2.2-4.6 4.4-1.2 1-2.3 2.1-4.5 4.2-9 8.3-0.7 0.8-1.5 1.5-1.6 1.4-3.1 2.9-4 3.6-8 7.3-0.8 0.7-1.6 1.5-6.3 5.8-12.5 11.6-11 10.3-22.1 20.5-2.4 2.2-4.8 4.4-0.8 0.7-1.6 1.5-7.2 6.6-14.4 13.4-1.7 1.6-3.5 3.2c-2.2 2-2.2 2-4.4 4.5-4.8 5.1-8.5 8.1-15.6 8.7-2.6 0-5.2 0-7.8-0.1q-2.2 0-4.4 0-5.8 0-11.7-0.1c-4.1 0-8.2-0.1-12.3-0.1q-11.6 0-23.2-0.2-13.2-0.1-26.4-0.2-27.1-0.2-54.3-0.5 0 1.2 0 2.4 0.3 28.9 0.4 57.8 0.1 14 0.2 28 0.1 12.2 0.2 24.3 0 6.5 0 12.9 0.1 6.1 0.1 12.2 0 2.2 0.1 4.5c0.2 11.1 0.2 11.1-2.7 15.5-2 2-4 3.7-6.3 5.4q-2 1.7-4 3.5-1 0.8-2 1.7c-3.6 3.3-7.1 6.8-10.5 10.3-4.7 4.8-9.4 9.3-14.5 13.7-3.7 3.3-7.1 6.8-10.5 10.3-4.7 4.8-9.4 9.3-14.5 13.7-3.7 3.3-7.1 6.8-10.5 10.3-4.7 4.8-9.4 9.3-14.5 13.7-3.7 3.3-7.1 6.8-10.5 10.3-4.8 4.9-9.7 9.7-15 14.2q-1.3 1.1-2.5 2.3-3.8 0.1-7.6 0.1-1.2 0-2.4 0-4.1 0-8.2 0-2.9 0-5.9 0c-25.9-0.1-51.7-0.3-77.6-0.6q-9.2 0-18.5-0.1-20.9-0.2-41.8-0.4 1.4-1.7 2.9-3.4c0.8-0.9 0.8-0.9 1.6-1.9q2.6-2.9 5.4-5.7c0.9-0.9 0.9-0.9 1.8-1.8 1.9-1.8 3.8-3.5 5.8-5.2 5.8-5 11.1-10.5 16.5-16 12.1-12.2 12.1-12.2 18.2-17.5 2.9-2.4 5.6-5 8.3-7.5 3.5-3.2 6.9-6.4 10.5-9.5 7.7-6.7 15.2-13.6 22.3-20.8 1.7-1.7 3.5-3.3 5.4-4.9 4.5-3.9 8.6-8.1 12.8-12.3 4.7-4.8 9.4-9.3 14.5-13.7 3.7-3.3 7.1-6.8 10.5-10.3 4.6-4.7 9.3-9.3 14.4-13.6q1-0.9 2.1-1.9 0.8-0.7 1.7-1.4c3.6-3.1 5.7-5.4 6.2-10.2q0-2.6 0-5.3c0-1.4 0-1.4 0-2.9q0-4.9 0-9.8 0-3.6 0-7.1 0.1-9.5 0-19.1 0-8.9 0-17.9 0.1-17.8 0.1-35.5-0.1-17.3 0-34.5 0-1.1 0-2.1 0-5.4 0-10.7 0.1-44.3 0-88.5c1.7 0 1.7 0 3.4 0q41.3 0 82.6 0 20-0.1 40 0 17.4 0 34.8-0.1 9.2 0 18.4 0 8.7 0.1 17.4 0 3.2 0 6.3 0c12.4 0.7 12.4 0.7 23.2-4.3 1.6-1.8 1.6-1.8 2.9-3.6q1.5-1.5 3.1-3 1.4-1.4 2.9-2.9 0.8-0.8 1.6-1.6 2.4-2.5 4.9-5c12.1-12.3 12.1-12.3 18.4-17.6 4.9-4.4 9.5-9.2 14.1-13.9 5.8-5.9 11.6-11.7 17.9-17.1 4.9-4.4 9.5-9.2 14.1-13.9 5.8-5.9 11.6-11.7 17.9-17.1 4.9-4.4 9.5-9.2 14.1-13.9 11.8-12 11.8-12 18.1-17.4 3.5-3 6.7-6.3 9.9-9.5 1-1.1 1-1.1 2.1-2.1q2.4-2.5 4.9-5z"/><path class="a" d="m1511.2 1071.7q2.2 0 4.4 0 5.9 0 11.8 0 6.5 0 12.9 0 12.5 0 25.1 0 10.2 0 20.4 0 29-0.1 58-0.1 1.5 0 3.1 0 1.6 0 3.2 0 25.3 0 50.6 0 26.1-0.1 52.1-0.1 14.6 0 29.2 0 12.5 0 24.9 0 6.3 0 12.6 0 5.9 0 11.7 0 2.1 0 4.1 0c12.2-0.1 22.8 2.1 32.7 9.5q1 0.7 2 1.4c10.6 8.3 15.4 19.6 17 32.6 0.5 7.7 0.4 15.4 0.4 23.1q0 3.5 0 6.9 0 9.4 0 18.7 0 9.9 0 19.7 0 16.5-0.1 32.9 0 17 0 33.9 0 20.4 0 40.9 0 7.8 0 15.6 0 9.1 0 18.3 0 3.4 0 6.7 0 4.6 0 9.2 0 1.3 0 2.7c-0.1 14.9-4.7 28.7-15.3 39.4-13 10.7-27.3 12.3-43.6 12.3q-2.2 0-4.4 0-5.9 0-11.9 0-6.4 0-12.8 0-12.6 0-25.2 0-10.2 0-20.5 0-1.4 0-2.9 0-3 0-5.9 0-27.8 0-55.6 0-25.4 0-50.8 0-26.1 0.1-52.2 0.1-14.6 0-29.3 0-12.4 0-24.9 0-6.3 0-12.7 0c-32.4 0.1-32.4 0.1-47.3-3.4-1.4-0.3-1.4-0.3-2.9-0.6q-3.1-0.7-6.1-1.6c-1.1-0.3-1.1-0.3-2.2-0.6-25.1-7.5-46.5-22-65.8-39.2q-1-0.9-2.1-1.8c-26.2-24.8-44.6-65-46.2-100.9q-0.1-5.8 0-11.7 0-3.5 0-7.1c0-13.4 1.5-26.2 5.4-39.1q0.4-1.6 0.9-3.1c5-16.3 12.2-31.3 22-45.3q0.6-0.9 1.2-1.8c23.9-33.4 61.1-57.9 101.8-64.9 11.1-1.8 21.9-2.6 33.2-2.6z"/><path class="b" d="m1017 318c3 1.3 5.1 2.9 7.5 5.1q1 0.9 2 1.9 1 0.9 2.1 1.9 1 1 2.1 2.1c5.1 4.8 10 9.7 14.9 14.7 2.1 2 4.1 3.8 6.3 5.7 3.7 3.2 7.1 6.6 10.6 10.1 3.4 3.4 6.8 6.8 10.4 9.9 4.6 3.9 8.7 8.2 13 12.5 3.5 3.6 7.1 7 11.1 10.2 2 1.9 2 1.9 3.9 4.6 4.1 5.3 7.5 8.4 14.3 9.3 6.7 0.5 13.3 0.4 19.9 0.3q3.7 0 7.4 0 9.6 0 19.2-0.1c6.6 0 13.2 0 19.7 0q19.3 0 38.6-0.2 0 0.9 0 1.8-0.3 21.4-0.4 42.8 0 10.4-0.2 20.8-0.1 10-0.1 20 0 3.8-0.1 7.6c-0.7 14.7-0.7 14.7 5.1 27.6 3 3.1 6.3 5.7 9.9 8.2 2.5 1.7 4.6 3.7 6.8 5.7q1.2 1 2.3 2.1c3.5 3.1 6.8 6.2 10.2 9.4q11.5 10.8 23.4 21.2 3.5 3.1 6.9 6.2c3.4 3 6.8 5.9 10.4 8.8 9.1 7.3 17.6 15.5 25.8 23.8q-2 1-4 2c2.5 2 2.5 2 5 4q-1.8 0.7-3.7 1.4c-27.5 10.4-55 20.9-82.4 31.5q-3.5 1.4-7.1 2.8-1.7 0.6-3.5 1.3-10 3.9-20 7.7-6 2.3-12.1 4.5-2.7 1.1-5.5 2.1c-26.1 9.8-43.6 22.9-61.3 44.7q-4.1 5-8.3 9.9-5.8 6.8-11.7 13.7c-0.6 0.8-0.6 0.8-1.3 1.6q-1.4 1.6-2.7 3.2-3.5 4-6.9 8.1-1.4 1.6-2.7 3.2c-24.8 29.3-24.8 29.3-49.5 58.5q-0.7 0.9-1.4 1.7-1.4 1.6-2.8 3.2-3.5 4.2-7 8.3c-5 5.9-10 11.8-15.1 17.6-4-2.9-7-6.2-9.9-10.2q-6.4-8.3-13.1-16.3c-4.3-5.2-8.5-10.4-12.7-15.8q-5.2-6.7-10.8-13.2-5.6-6.5-10.8-13.3-6.2-7.9-12.6-15.6-0.9-1-1.8-2.1-0.8-1.1-1.7-2.2c-7.6-9.1-15-18.2-22.2-27.5q-6-7.6-12.3-14.9c-2.4-2.8-4.6-5.6-6.7-8.6-5.8-8-10.8-12.6-20.1-16.4-2.6-1-5.1-2.1-7.6-3.3q-6.7-3-13.3-5.9-13.6-6-27.2-12-2.9-1.3-5.8-2.6-15.8-7-31.5-14.1c-1.4-0.6-1.4-0.6-2.7-1.2q-6.3-2.9-12.6-5.7-11.8-5.4-23.7-10.4-1.2-0.5-2.3-1c-6.2-2.6-12.5-4.7-18.9-6.6-5.3-1.6-10.5-3.3-15.7-5.1 3.4-4.7 7.6-8.2 12-12 7.6-6.5 15.2-13 22.5-19.8q5.2-4.9 10.5-9.5c3.3-2.8 6.4-5.7 9.6-8.5q3-2.7 6.1-5.4c4.6-4 9-8.2 13.5-12.4q6.2-5.8 12.5-11.6 1.4-1.3 2.8-2.6c2.5-2.2 2.5-2.2 4.6-3.5 2.1-1.6 2.1-1.6 2.4-4 0-1.4 0-1.4 0-2.8 0-1.6 0-1.6 0.1-3.3 0-1.7 0-1.7-0.1-3.5 0.1-1.9 0.1-1.9 0.1-3.7q0-5.1 0-10.1 0-5.3 0.1-10.6 0-10 0-20 0.1-11.4 0.1-22.8 0.1-23.5 0.2-46.9c0.8 0 0.8 0 1.7 0q20.2 0.2 40.4 0.2 9.7 0 19.5 0.1 9.4 0 18.9 0 3.6 0 7.2 0c14.3 0.8 14.3 0.8 26.7-5.2 2.1-2.2 3.8-4.6 5.6-7.1 2-1.9 2-1.9 3.8-3.3 4-3.4 7.6-7 11.2-10.7 4.1-4.2 8.3-8.2 12.8-12 3.2-2.9 6.2-6 9.2-9 4.1-4.2 8.3-8.2 12.8-12 3.8-3.5 7.4-7.2 11-10.9 3.7-3.7 7.5-7.2 11.5-10.6 2.7-2.4 5.2-4.9 7.7-7.5z"/><path class="c" d="m1545 1179.4c15.1 10.4 26.1 25.4 30 43.6 0.4 4.1 0.4 8.1 0.3 12.1q0 1.6 0 3.2c-0.1 14.7-5.1 28.2-14.3 39.7q-0.9 1.1-1.7 2.3c-9.9 12.2-26.7 20.8-42.3 22.7-18.4 1-35.8-2.7-50-15-14.8-13.6-23.6-30.5-24.5-50.7-0.3-18.3 6.5-34.7 19.1-48 22.9-22.3 56-26.3 83.4-9.9z"/></svg>